<svg viewBox="0 0 24 24" fill="none" xmlns="http://www.w3.org/2000/svg">
  <path fill="currentColor" d="M4 1.75H12V22.25H4C2.75736 22.25 1.75 21.2426 1.75 20V4C1.75 2.75736 2.75736 1.75 4 1.75Z" stroke="currentColor" stroke-width="1.5"/>
  <path d="M12 1.75H20C21.2426 1.75 22.25 2.75736 22.25 4V20C22.25 21.2426 21.2426 22.25 20 22.25H12V1.75Z" stroke="currentColor" stroke-width="1.5"/>
  <path class="dynamic-path-color" d="M9.53033 12.5303C9.82322 12.2374 9.82322 11.7626 9.53033 11.4697L4.75736 6.6967C4.46447 6.40381 3.98959 6.40381 3.6967 6.6967C3.40381 6.98959 3.40381 7.46447 3.6967 7.75736L7.93934 12L3.6967 16.2426C3.40381 16.5355 3.40381 17.0104 3.6967 17.3033C3.98959 17.5962 4.46447 17.5962 4.75736 17.3033L9.53033 12.5303ZM1 12.75H9V11.25H1V12.75Z"
        fill="currentColor"
        style="transform-origin: 28% 50%;transform: rotate(180deg)"/>
</svg>
