<svg viewBox="0 0 24 24" fill="none" xmlns="http://www.w3.org/2000/svg">
  <path d="M4 1.75H12V22.25H4C2.75736 22.25 1.75 21.2426 1.75 20V4C1.75 2.75736 2.75736 1.75 4 1.75Z" stroke="currentColor" stroke-width="1.5"/>
  <path d="M12 1.75H20C21.2426 1.75 22.25 2.75736 22.25 4V20C22.25 21.2426 21.2426 22.25 20 22.25H12V1.75Z" stroke="currentColor" stroke-width="1.5"/>
  <path d="M14.4697 11.4697C14.1768 11.7626 14.1768 12.2374 14.4697 12.5303L19.2426 17.3033C19.5355 17.5962 20.0104 17.5962 20.3033 17.3033C20.5962 17.0104 20.5962 16.5355 20.3033 16.2426L16.0607 12L20.3033 7.75736C20.5962 7.46447 20.5962 6.98959 20.3033 6.6967C20.0104 6.40381 19.5355 6.40381 19.2426 6.6967L14.4697 11.4697ZM23 11.25L15 11.25V12.75L23 12.75V11.25Z" fill="currentColor"/>
</svg>
